<svg width="270" height="43" viewBox="0 0 270 43" fill="none" xmlns="http://www.w3.org/2000/svg">
<path d="M24.3125 0.1875C26.4167 0.1875 28.3229 0.5 30.0312 1.125C31.7396 1.75 33.1875 2.60417 34.375 3.6875C35.5833 4.77083 36.5104 6.04167 37.1562 7.5C37.8021 8.9375 38.125 10.4688 38.125 12.0938V31.0938C38.125 32.7188 37.8021 34.2604 37.1562 35.7188C36.5104 37.1562 35.5833 38.4167 34.375 39.5C33.1875 40.5833 31.7396 41.4375 30.0312 42.0625C28.3229 42.6875 26.4167 43 24.3125 43H14.6875C12.5833 43 10.6771 42.6875 8.96875 42.0625C7.26042 41.4375 5.80208 40.5833 4.59375 39.5C3.40625 38.4167 2.48958 37.1562 1.84375 35.7188C1.19792 34.2604 0.875 32.7188 0.875 31.0938V12.0938C0.875 10.4688 1.19792 8.9375 1.84375 7.5C2.48958 6.04167 3.40625 4.77083 4.59375 3.6875C5.80208 2.60417 7.26042 1.75 8.96875 1.125C10.6771 0.5 12.5833 0.1875 14.6875 0.1875H24.3125ZM19.4375 3.5L17.7188 3H13.625L11 3.4375L9 5.4375V28.8438H12.3438V6.59375C12.6354 6.53125 12.8958 6.48958 13.125 6.46875C13.3542 6.44792 13.6042 6.39583 13.875 6.3125H17.4375C17.6667 6.39583 17.8854 6.44792 18.0938 6.46875C18.3229 6.48958 18.5521 6.53125 18.7812 6.59375V19.8438H22.125V6.59375L23.4688 6.3125H27.0625C27.3125 6.39583 27.5625 6.44792 27.8125 6.46875C28.0625 6.48958 28.3229 6.53125 28.5938 6.59375V28.8438H31.9062V5.4375L29.9375 3.4375L27.3125 3H23.2188L21.5312 3.5L20.4688 5.65625L19.4375 3.5ZM49.1875 25.5312V28.8438H67.25V25.5312H59.9062V6.3125H67.25V3H49.1875V6.3125H56.5625V25.5312H49.1875ZM61.3125 0.1875C63.4167 0.1875 65.3229 0.5 67.0312 1.125C68.7396 1.75 70.1875 2.60417 71.375 3.6875C72.5833 4.77083 73.5104 6.04167 74.1562 7.5C74.8021 8.9375 75.125 10.4688 75.125 12.0938V31.0938C75.125 32.7188 74.8021 34.2604 74.1562 35.7188C73.5104 37.1562 72.5833 38.4167 71.375 39.5C70.1875 40.5833 68.7396 41.4375 67.0312 42.0625C65.3229 42.6875 63.4167 43 61.3125 43H51.6875C49.5833 43 47.6771 42.6875 45.9688 42.0625C44.2604 41.4375 42.8021 40.5833 41.5938 39.5C40.4062 38.4167 39.4896 37.1562 38.8438 35.7188C38.1979 34.2604 37.875 32.7188 37.875 31.0938V12.0938C37.875 10.4688 38.1979 8.9375 38.8438 7.5C39.4896 6.04167 40.4062 4.77083 41.5938 3.6875C42.8021 2.60417 44.2604 1.75 45.9688 1.125C47.6771 0.5 49.5833 0.1875 51.6875 0.1875H61.3125ZM98.3125 0.1875C100.417 0.1875 102.323 0.5 104.031 1.125C105.74 1.75 107.188 2.60417 108.375 3.6875C109.583 4.77083 110.51 6.04167 111.156 7.5C111.802 8.9375 112.125 10.4688 112.125 12.0938V31.0938C112.125 32.7188 111.802 34.2604 111.156 35.7188C110.51 37.1562 109.583 38.4167 108.375 39.5C107.188 40.5833 105.74 41.4375 104.031 42.0625C102.323 42.6875 100.417 43 98.3125 43H88.6875C86.5833 43 84.6771 42.6875 82.9688 42.0625C81.2604 41.4375 79.8021 40.5833 78.5938 39.5C77.4062 38.4167 76.4896 37.1562 75.8438 35.7188C75.1979 34.2604 74.875 32.7188 74.875 31.0938V12.0938C74.875 10.4688 75.1979 8.9375 75.8438 7.5C76.4896 6.04167 77.4062 4.77083 78.5938 3.6875C79.8021 2.60417 81.2604 1.75 82.9688 1.125C84.6771 0.5 86.5833 0.1875 88.6875 0.1875H98.3125ZM101.188 28.8438H104.75L102.281 5.5625L100.344 3.625L96.1875 3H92.8438L88.6875 3.625L86.7812 5.5625L84.2188 28.8438H87.9375L88.4375 22.1875L88.75 19.3125H100.281L100.594 22.1875L101.188 28.8438ZM99 6.78125C99.1458 8.46875 99.3125 10.0625 99.5 11.5625C99.6875 13.0625 99.8646 14.6458 100.031 16.3125H89.0312L89.9688 6.78125C90.5521 6.71875 91.0521 6.64583 91.4688 6.5625C91.9062 6.47917 92.4167 6.39583 93 6.3125H96.0625L99 6.78125ZM144.562 0.1875C146.667 0.1875 148.573 0.5 150.281 1.125C151.99 1.75 153.438 2.60417 154.625 3.6875C155.833 4.77083 156.76 6.04167 157.406 7.5C158.052 8.9375 158.375 10.4688 158.375 12.0938V31.0938C158.375 32.7188 158.052 34.2604 157.406 35.7188C156.76 37.1562 155.833 38.4167 154.625 39.5C153.438 40.5833 151.99 41.4375 150.281 42.0625C148.573 42.6875 146.667 43 144.562 43H134.938C132.833 43 130.927 42.6875 129.219 42.0625C127.51 41.4375 126.052 40.5833 124.844 39.5C123.656 38.4167 122.74 37.1562 122.094 35.7188C121.448 34.2604 121.125 32.7188 121.125 31.0938V12.0938C121.125 10.4688 121.448 8.9375 122.094 7.5C122.74 6.04167 123.656 4.77083 124.844 3.6875C126.052 2.60417 127.51 1.75 129.219 1.125C130.927 0.5 132.833 0.1875 134.938 0.1875H144.562ZM150.438 19.0625L150 16.375L148 14.4062L144.75 14.0625H137.75L135.844 13.6875C135.74 13.3333 135.667 13.0208 135.625 12.75C135.583 12.4583 135.51 12.1562 135.406 11.8438V8.5625L135.844 6.71875L137.906 6.3125H145.844L148.781 6.90625L149.531 3.5L145.906 3H137.688L134.562 3.4375L132.531 5.4375L132.125 8.0625V12.3438L132.531 14.9688L134.562 16.9375L137.688 17.3438H144.75L146.656 17.6562C146.719 17.9688 146.792 18.2604 146.875 18.5312C146.958 18.8021 147.031 19.0833 147.094 19.375V23.4688C147.052 23.7396 146.979 24.0312 146.875 24.3438C146.792 24.6562 146.719 24.9479 146.656 25.2188L144.625 25.5312H136.875L133.812 25.0312L133.031 28.4062L136.688 28.8438H144.812L148 28.4688L150 26.5L150.438 23.8125V19.0625ZM181.562 0.1875C183.667 0.1875 185.573 0.5 187.281 1.125C188.99 1.75 190.438 2.60417 191.625 3.6875C192.833 4.77083 193.76 6.04167 194.406 7.5C195.052 8.9375 195.375 10.4688 195.375 12.0938V31.0938C195.375 32.7188 195.052 34.2604 194.406 35.7188C193.76 37.1562 192.833 38.4167 191.625 39.5C190.438 40.5833 188.99 41.4375 187.281 42.0625C185.573 42.6875 183.667 43 181.562 43H171.938C169.833 43 167.927 42.6875 166.219 42.0625C164.51 41.4375 163.052 40.5833 161.844 39.5C160.656 38.4167 159.74 37.1562 159.094 35.7188C158.448 34.2604 158.125 32.7188 158.125 31.0938V12.0938C158.125 10.4688 158.448 8.9375 159.094 7.5C159.74 6.04167 160.656 4.77083 161.844 3.6875C163.052 2.60417 164.51 1.75 166.219 1.125C167.927 0.5 169.833 0.1875 171.938 0.1875H181.562ZM184.438 28.8438H188L185.531 5.5625L183.594 3.625L179.438 3H176.094L171.938 3.625L170.031 5.5625L167.469 28.8438H171.188L171.688 22.1875L172 19.3125H183.531L183.844 22.1875L184.438 28.8438ZM182.25 6.78125C182.396 8.46875 182.562 10.0625 182.75 11.5625C182.938 13.0625 183.115 14.6458 183.281 16.3125H172.281L173.219 6.78125C173.802 6.71875 174.302 6.64583 174.719 6.5625C175.156 6.47917 175.667 6.39583 176.25 6.3125H179.312L182.25 6.78125ZM218.562 0.1875C220.667 0.1875 222.573 0.5 224.281 1.125C225.99 1.75 227.438 2.60417 228.625 3.6875C229.833 4.77083 230.76 6.04167 231.406 7.5C232.052 8.9375 232.375 10.4688 232.375 12.0938V31.0938C232.375 32.7188 232.052 34.2604 231.406 35.7188C230.76 37.1562 229.833 38.4167 228.625 39.5C227.438 40.5833 225.99 41.4375 224.281 42.0625C222.573 42.6875 220.667 43 218.562 43H208.938C206.833 43 204.927 42.6875 203.219 42.0625C201.51 41.4375 200.052 40.5833 198.844 39.5C197.656 38.4167 196.74 37.1562 196.094 35.7188C195.448 34.2604 195.125 32.7188 195.125 31.0938V12.0938C195.125 10.4688 195.448 8.9375 196.094 7.5C196.74 6.04167 197.656 4.77083 198.844 3.6875C200.052 2.60417 201.51 1.75 203.219 1.125C204.927 0.5 206.833 0.1875 208.938 0.1875H218.562ZM221.438 28.8438H225L222.531 5.5625L220.594 3.625L216.438 3H213.094L208.938 3.625L207.031 5.5625L204.469 28.8438H208.188L208.688 22.1875L209 19.3125H220.531L220.844 22.1875L221.438 28.8438ZM219.25 6.78125C219.396 8.46875 219.562 10.0625 219.75 11.5625C219.938 13.0625 220.115 14.6458 220.281 16.3125H209.281L210.219 6.78125C210.802 6.71875 211.302 6.64583 211.719 6.5625C212.156 6.47917 212.667 6.39583 213.25 6.3125H216.312L219.25 6.78125ZM255.562 0.1875C257.667 0.1875 259.573 0.5 261.281 1.125C262.99 1.75 264.438 2.60417 265.625 3.6875C266.833 4.77083 267.76 6.04167 268.406 7.5C269.052 8.9375 269.375 10.4688 269.375 12.0938V31.0938C269.375 32.7188 269.052 34.2604 268.406 35.7188C267.76 37.1562 266.833 38.4167 265.625 39.5C264.438 40.5833 262.99 41.4375 261.281 42.0625C259.573 42.6875 257.667 43 255.562 43H245.938C243.833 43 241.927 42.6875 240.219 42.0625C238.51 41.4375 237.052 40.5833 235.844 39.5C234.656 38.4167 233.74 37.1562 233.094 35.7188C232.448 34.2604 232.125 32.7188 232.125 31.0938V12.0938C232.125 10.4688 232.448 8.9375 233.094 7.5C233.74 6.04167 234.656 4.77083 235.844 3.6875C237.052 2.60417 238.51 1.75 240.219 1.125C241.927 0.5 243.833 0.1875 245.938 0.1875H255.562ZM261.438 19.0625L261 16.375L259 14.4062L255.75 14.0625H248.75L246.844 13.6875C246.74 13.3333 246.667 13.0208 246.625 12.75C246.583 12.4583 246.51 12.1562 246.406 11.8438V8.5625L246.844 6.71875L248.906 6.3125H256.844L259.781 6.90625L260.531 3.5L256.906 3H248.688L245.562 3.4375L243.531 5.4375L243.125 8.0625V12.3438L243.531 14.9688L245.562 16.9375L248.688 17.3438H255.75L257.656 17.6562C257.719 17.9688 257.792 18.2604 257.875 18.5312C257.958 18.8021 258.031 19.0833 258.094 19.375V23.4688C258.052 23.7396 257.979 24.0312 257.875 24.3438C257.792 24.6562 257.719 24.9479 257.656 25.2188L255.625 25.5312H247.875L244.812 25.0312L244.031 28.4062L247.688 28.8438H255.812L259 28.4688L261 26.5L261.438 23.8125V19.0625Z" fill="white"/>
</svg>
